<?xml version="1.0" encoding="utf-8"?>
<!-- Generator: Adobe Illustrator 25.0.0, SVG Export Plug-In . SVG Version: 6.00 Build 0)  -->
<svg version="1.1" id="Warstwa_1" xmlns="http://www.w3.org/2000/svg" xmlns:xlink="http://www.w3.org/1999/xlink" x="0px" y="0px"
	 viewBox="0 0 595.3 841.9" style="enable-background:new 0 0 595.3 841.9;" xml:space="preserve">
<style type="text/css">
	.st0{fill:#87C2C6;}
	.st1{opacity:0.91;}
	.st2{fill:#F6F6F6;}
	.st3{fill:#4E86BE;}
	.st4{fill:#FFFFFF;}
	.st5{fill:none;stroke:#009FE3;stroke-miterlimit:10;}
	.st6{fill:#F5B0D0;}
	.st7{fill:#F9B233;}
	.st8{fill:#E3C4A1;}
	.st9{fill:#575756;}
	.st10{fill:#E8A730;}
	.st11{fill:#B2B2B2;}
	.st12{fill:#9D9D9C;}
	.st13{fill:#DFA2BE;}
</style>
<path class="st0" d="M497.8,657.8H97.5c-28.2,0-51.1-22.9-51.1-51.1V206.4c0-28.2,22.9-51.1,51.1-51.1h400.3
	c28.2,0,51.1,22.9,51.1,51.1v400.3C548.9,635,526,657.8,497.8,657.8z"/>
<g>
	<g class="st1">
		
			<image style="overflow:visible;opacity:0.6;" width="1257" height="1500" xlink:href="1892F489.png"  transform="matrix(0.24 0 0 0.24 130.8321 240.5121)">
		</image>
		<g>
			<path class="st2" d="M371.7,572H146.1c-11.6,0-20.9-9.4-20.9-20.9V267.2c0-11.6,9.4-20.9,20.9-20.9h225.6
				c11.6,0,20.9,9.4,20.9,20.9v283.9C392.7,562.6,383.3,572,371.7,572z"/>
		</g>
	</g>
	<path class="st3" d="M145,572l158-28.6c11,0,19.9-8.6,19.9-19.2V236.9c0-10.6-8.9-19.2-19.9-19.2l-158,28.6
		c-11,0-19.9,8.6-19.9,19.2v287.3C125.2,563.4,134.1,572,145,572z"/>
	<path class="st4" d="M257.4,328.5l-73.3,12.1c-5,0.8-9.6-2.9-9.6-7.8v-27.1c0-3.9,2.9-7.2,6.8-7.8l73.3-12.1c5-0.8,9.6,2.9,9.6,7.8
		v27.1C264.3,324.6,261.4,327.9,257.4,328.5z"/>
	<line class="st5" x1="183.8" y1="313.2" x2="246.8" y2="303.7"/>
	<line class="st5" x1="185.3" y1="322.7" x2="248.3" y2="313.2"/>
</g>
<g>
	
		<image style="overflow:visible;opacity:0.4;" width="584" height="1563" xlink:href="1892F48F.png"  transform="matrix(0.24 0 0 0.24 363.8721 262.5921)">
	</image>
	<g>
		<g>
			<g>
				<path class="st6" d="M430.9,564.7L459,562l4.6,20.9c1.4,6.4-0.1,12.9-3.9,16.1l-1.6,1.6c-1.6,1.3-12.8,5-14.6,5.7"/>
				<path class="st6" d="M435,563.6l-26.1,11.9l4.6,20.9c1.4,6.4,5.5,11.4,10.1,12.3l1.9,0.4c1.9,0.4,16.1-2.6,18-2.9"/>
			</g>
			<polygon class="st7" points="408.5,332.6 452.6,532.8 434,533.5 415.1,537.9 402.5,546.4 358.4,346.2 376.2,334.1 390.5,330.2 
							"/>
			<polygon class="st8" points="367.8,268.3 378.9,285.8 408.5,332.6 390.5,330.2 376.2,334.1 358.4,346.2 			"/>
			<path class="st9" d="M367.1,290.2l-2.1,2.1l2.9-24l11.1,17.5l-1.1,0C373.9,285.6,370,287.2,367.1,290.2z"/>
			<polygon class="st10" points="408.5,332.6 390.5,330.2 434,533.5 452.6,532.8 			"/>
			<path class="st11" d="M452.6,532.8l-18.7,0.7l-18.8,4.4l-12.6,8.5l6.7,30.4l8.4-4.8c2.1-1.2,4.2-2.1,6.5-2.7l14.7-4.3
				c1.3-0.4,2.7-0.6,4-0.7l16.5-1L452.6,532.8z"/>
			<polygon class="st12" points="452.6,532.8 459.3,563.2 440.8,564.5 434,533.5 			"/>
			<path class="st13" d="M459.3,563.2l4.6,20.8c1.7,7.6-2,15.5-8.7,18.3l-6.7,2.3l-7.7-40.1L459.3,563.2z"/>
		</g>
	</g>
</g>
</svg>
